<?xml version="1.0" encoding="UTF-8"?>
<svg version="1.1" xmlns="http://www.w3.org/2000/svg" width="1125" height="1050">
<path d="M0 0 C371.25 0 742.5 0 1125 0 C1125 346.5 1125 693 1125 1050 C753.75 1050 382.5 1050 0 1050 C0 703.5 0 357 0 0 Z " fill="#231F20" transform="translate(0,0)"/>
<path d="M0 0 C3.31613882 1.44580966 5.49185728 3.24829792 8.03417969 5.80712891 C8.81468689 6.58778717 9.59519409 7.36844543 10.39935303 8.17276001 C11.23178528 9.01551483 12.06421753 9.85826965 12.921875 10.7265625 C13.78186096 11.58937836 14.64184692 12.45219421 15.52789307 13.34115601 C18.2733231 16.09778029 21.0117169 18.86127799 23.75 21.625 C25.61021783 23.49524857 27.47088946 25.36504589 29.33203125 27.234375 C33.89329945 31.8176936 38.44881011 36.40667478 43 41 C40.27968118 44.47697563 37.66100866 47.2681468 34.1875 50 C29.60053427 53.67811215 25.12001744 57.44976336 20.6875 61.3125 C19.40107471 62.43232963 18.11461621 63.5521211 16.828125 64.671875 C16.19068359 65.22681641 15.55324219 65.78175781 14.89648438 66.35351562 C11.92144811 68.93637409 8.9305594 71.50056914 5.9375 74.0625 C5.36410889 74.55339111 4.79071777 75.04428223 4.19995117 75.55004883 C3.04469482 76.53885203 1.88934024 77.52754049 0.73388672 78.51611328 C-2.17894046 81.00895524 -5.08934061 83.50462766 -8 86 C-9.16665518 87.0000134 -10.33332184 88.00001341 -11.5 89 C-12.0775 89.495 -12.655 89.99 -13.25 90.5 C-15 92 -16.75 93.5 -18.5 95 C-19.0777417 95.4952417 -19.6554834 95.9904834 -20.25073242 96.50073242 C-21.41481977 97.49845195 -22.57904456 98.49601114 -23.7434082 99.4934082 C-26.70069887 102.02698743 -29.65538369 104.56350137 -32.60546875 107.10546875 C-37.93835322 111.69606553 -43.28185945 116.25761398 -48.75 120.6875 C-53.12507747 124.23745321 -57.30549192 127.95563821 -61.46875 131.75 C-64.97799486 134.86932876 -68.63162123 137.79749133 -72.28125 140.75 C-75.76701771 143.63477328 -79.0948149 146.67459884 -82.4375 149.72265625 C-86.11090147 152.98727981 -89.92316537 156.07021984 -93.75 159.15234375 C-96.02119749 160.95605161 -96.02119749 160.95605161 -98 163 C-102.08969544 162.80774936 -104.05849558 160.21222282 -106.75 157.375 C-110.51033306 153.46960958 -114.3420378 149.92068963 -118.6015625 146.5703125 C-120 145 -120 145 -120 141 C-118.48828125 138.73046875 -118.48828125 138.73046875 -116.3125 136.1875 C-115.49007812 135.218125 -114.66765625 134.24875 -113.8203125 133.25 C-112.88108006 132.16591081 -111.94093327 131.08261329 -111 130 C-109.97634242 128.81268971 -108.9529124 127.62518319 -107.9296875 126.4375 C-105.73503112 123.89589672 -103.53368567 121.3602697 -101.328125 118.828125 C-96.68555246 113.49536746 -92.09319611 108.11983519 -87.49707031 102.74707031 C-85.96713241 100.96164376 -84.43329199 99.17963855 -82.8984375 97.3984375 C-78.30622865 92.06449936 -73.74355043 86.71957787 -69.3125 81.25 C-65.75732096 76.86848205 -62.03230463 72.68289319 -58.234375 68.51171875 C-55.99865467 65.99848768 -53.86622318 63.42688521 -51.75 60.8125 C-46.53613562 54.37451094 -41.08958747 48.14836434 -35.65087891 41.90087891 C-27.82480324 32.88966549 -20.10682834 23.78528368 -12.40722656 14.66601562 C-9.8777665 11.67138768 -7.34488872 8.6796513 -4.8125 5.6875 C-3.88149647 4.58725138 -2.95050553 3.48699211 -2.01953125 2.38671875 C-1.01986328 1.20529297 -1.01986328 1.20529297 0 0 Z " fill="#FDFDFD" transform="translate(764,323)"/>
<path d="M0 0 C4.00188631 1.8173123 6.27444617 4.38464944 9 7.75 C9.97989907 8.93406543 10.96038803 10.11764289 11.94140625 11.30078125 C12.44559082 11.91260254 12.94977539 12.52442383 13.46923828 13.15478516 C15.92319977 16.11284592 18.43043933 19.02444426 20.9375 21.9375 C21.94277689 23.10931619 22.9479848 24.28119156 23.953125 25.453125 C26.00288269 27.84055191 28.05542419 30.22555505 30.109375 32.609375 C34.6983591 37.94120634 39.25877834 43.28329671 43.6875 48.75 C47.24267904 53.13151795 50.96769537 57.31710681 54.765625 61.48828125 C57.00134533 64.00151232 59.13377682 66.57311479 61.25 69.1875 C66.46518515 75.62711993 71.91331752 81.85455403 77.35351562 88.10351562 C81.42902525 92.79784521 85.46183847 97.52898741 89.50292969 102.25292969 C91.03286759 104.03835624 92.56670801 105.82036145 94.1015625 107.6015625 C99.43507942 113.7965441 104.68437673 120.03993712 109.828125 126.39453125 C112.81562157 129.9784525 115.96788901 133.39948612 119.15234375 136.80859375 C120.85823324 138.83185803 121.87483403 140.63010171 123 143 C120.24099916 145.88250983 117.46589896 148.74839821 114.67480469 151.59985352 C113.72751645 152.57230105 112.78476221 153.54918665 111.84667969 154.53051758 C110.49831092 155.93946317 109.13218107 157.33134373 107.765625 158.72265625 C106.94868164 159.56578369 106.13173828 160.40891113 105.29003906 161.27758789 C103 163 103 163 100.83911133 162.87670898 C98.26314215 161.64873802 96.5061376 159.96299054 94.4375 158 C90.88204125 154.70036721 87.27743145 151.5433774 83.5 148.5 C79.9052235 145.5918662 76.41739372 142.61458668 73 139.5 C69.68010514 136.47717579 66.30235888 133.57487839 62.8125 130.75 C56.37288007 125.53481485 50.14544597 120.08668248 43.89648438 114.64648438 C40.92144811 112.06362591 37.9305594 109.49943086 34.9375 106.9375 C34.07741333 106.20116333 34.07741333 106.20116333 33.19995117 105.44995117 C32.04469482 104.46114797 30.88934024 103.47245951 29.73388672 102.48388672 C27.40529839 100.49104529 25.07829738 98.49635582 22.75146484 96.50146484 C21.58660944 95.50287817 20.42157121 94.50450472 19.25634766 93.50634766 C16.29911478 90.97287723 13.34452942 88.43642376 10.39453125 85.89453125 C5.06164678 81.30393447 -0.28185945 76.74238602 -5.75 72.3125 C-10.12363873 68.76371418 -14.30266846 65.04669673 -18.46484375 61.25390625 C-21.98454854 58.12467719 -25.644075 55.18061311 -29.3046875 52.21875 C-33.30498692 48.9257499 -37.16109003 45.47871594 -41 42 C-36.5021065 36.60809603 -31.73873458 31.60608316 -26.7578125 26.66015625 C-25.98944061 25.89319931 -25.22106873 25.12624237 -24.42941284 24.33604431 C-21.99696491 21.9091526 -19.56104678 19.48577873 -17.125 17.0625 C-15.46591448 15.40843514 -13.80705798 13.75414055 -12.1484375 12.09960938 C-8.10160291 8.06374567 -4.05192047 4.03075723 0 0 Z " fill="#FDFDFD" transform="translate(515,323)"/>
<path d="M0 0 C3.46629835 1.48653506 5.69022036 3.45722351 8.328125 6.1328125 C9.12734375 6.93847656 9.9265625 7.74414062 10.75 8.57421875 C11.575 9.41597656 12.4 10.25773437 13.25 11.125 C14.09046875 11.97449219 14.9309375 12.82398438 15.796875 13.69921875 C17.86915683 15.79504923 19.93662393 17.89540713 22 20 C19.89483491 23.59958622 17.72322001 26.57260652 14.875 29.625 C11.72137527 33.06762249 8.68364323 36.55562803 5.75 40.1875 C1.60101536 45.31570304 -2.69249095 50.30226317 -7.04394531 55.25854492 C-7.55538086 55.8435376 -8.06681641 56.42853027 -8.59375 57.03125 C-9.10944046 57.60548706 -9.62513092 58.17972412 -10.15644836 58.7713623 C-12.08673218 61.01722052 -12.08673218 61.01722052 -13.78599548 63.75605774 C-16.75966963 68.08183073 -19.07501339 71.42445149 -24.23672485 72.96774292 C-28.07355172 73.26993615 -31.82292582 73.24117178 -35.66015625 73.07421875 C-37.05970601 73.05366194 -38.45933579 73.03802292 -39.85899353 73.02705383 C-43.51574293 72.98535814 -47.16756532 72.87761829 -50.8223877 72.75531006 C-54.56255431 72.64209211 -58.30352998 72.59240022 -62.04492188 72.53710938 C-69.36551048 72.41968276 -76.68206105 72.23236342 -84 72 C-81.27169693 69.24433823 -78.54830006 66.52414011 -75.6171875 63.984375 C-75.01285889 63.46004883 -74.40853027 62.93572266 -73.78588867 62.39550781 C-73.15529541 61.85249023 -72.52470215 61.30947266 -71.875 60.75 C-71.21411377 60.17862305 -70.55322754 59.60724609 -69.87231445 59.01855469 C-65.16385306 54.96270052 -60.37330326 51.01930604 -55.54296875 47.109375 C-52.10852621 44.26052865 -48.82864204 41.25521806 -45.53125 38.25 C-42.02200514 35.13067124 -38.36837877 32.20250867 -34.71875 29.25 C-32.07852271 27.06498431 -29.5327028 24.80828609 -27 22.5 C-21.82810949 17.79382475 -16.43760702 13.39364656 -11 9 C-8.93515378 7.31534974 -6.87395366 5.62630626 -4.8125 3.9375 C-3.20833333 2.625 -1.60416667 1.3125 0 0 Z " fill="#FCFCFC" transform="translate(616,492)"/>
<path d="M0 0 C4.69644275 1.8785771 6.58589992 3.18714933 10.125 6.5625 C13.73356545 9.94598758 17.39705267 13.20713946 21.25 16.3125 C27.6730194 21.50208039 33.87647979 26.93240556 40.10351562 32.35351562 C43.07855189 34.93637409 46.0694406 37.50056914 49.0625 40.0625 C49.92258667 40.79883667 49.92258667 40.79883667 50.80004883 41.55004883 C51.95530518 42.53885203 53.11065976 43.52754049 54.26611328 44.51611328 C56.01011386 46.0086556 57.75327104 47.50217627 59.49609375 48.99609375 C60.07520508 49.49246338 60.65431641 49.98883301 61.25097656 50.50024414 C62.4082009 51.49254301 63.56510702 52.48521313 64.72167969 53.47827148 C67.79154059 56.11298958 70.86891648 58.73825198 73.95703125 61.3515625 C74.60220703 61.89941406 75.24738281 62.44726562 75.91210938 63.01171875 C77.15461165 64.06650485 78.39931775 65.11870184 79.64648438 66.16796875 C83.8875378 69.7750756 83.8875378 69.7750756 85 72 C77.14205543 72.34998151 69.28598337 72.61523898 61.42216969 72.77718258 C57.76860818 72.85498547 54.12043094 72.96012408 50.4699707 73.1315918 C24.93970256 74.29980737 24.93970256 74.29980737 18.27783203 68.79858398 C15.37856777 65.77238964 13.13942344 62.50593981 11.0897522 58.86045837 C9.43327145 56.03246364 7.37738011 53.67661704 5.25 51.1875 C4.54359375 50.31480469 3.8371875 49.44210937 3.109375 48.54296875 C0.97013194 45.9639924 -1.24424937 43.47743647 -3.5 41 C-9.53753138 34.35871549 -15.37462087 27.70896522 -20 20 C-13.4 13.4 -6.8 6.8 0 0 Z " fill="#FCFCFC" transform="translate(663,492)"/>
<path d="M0 0 C3.43400155 2.75006725 4.75319515 6.56533335 6.40625 10.5078125 C6.88856079 11.63330757 6.88856079 11.63330757 7.38061523 12.78153992 C8.42691835 15.22663853 9.46338105 17.67578214 10.5 20.125 C11.21597356 21.80202817 11.93277432 23.47870342 12.65039062 25.1550293 C13.73216583 27.68211736 14.81350187 30.20937953 15.89221191 32.73777771 C19.04241664 40.11947876 22.25667706 47.47125386 25.5 54.8125 C25.96212891 55.86002441 26.42425781 56.90754883 26.90039062 57.98681641 C27.93246921 60.3250442 28.96555842 62.66281691 30 65 C31.5861373 62.62079406 32.70794385 60.58304943 33.84423828 57.99780273 C34.37587082 56.7939518 34.37587082 56.7939518 34.91824341 55.56578064 C35.29842621 54.69715897 35.67860901 53.82853729 36.0703125 52.93359375 C36.47023407 52.02609879 36.87015564 51.11860382 37.28219604 50.18360901 C38.56578852 47.26940063 39.84549621 44.35350554 41.125 41.4375 C41.96327539 39.53178389 42.80181441 37.62618373 43.640625 35.72070312 C44.88325503 32.89779363 46.12568778 30.07479957 47.36700439 27.25131226 C51.21978944 18.48978585 55.10484027 9.74275584 59 1 C59.99 1.495 59.99 1.495 61 2 C61.71385193 4.47351074 61.71385193 4.47351074 62.37280273 7.81054688 C62.74845619 9.68015076 62.74845619 9.68015076 63.13169861 11.58752441 C63.39922434 12.96455546 63.66651639 14.34163192 63.93359375 15.71875 C64.21430896 17.13405068 64.49573801 18.54920994 64.77784729 19.9642334 C65.52259885 23.71108234 66.25661968 27.45996094 66.98876953 31.20928955 C67.57815457 34.21802319 68.17514119 37.22522261 68.77252769 40.2323761 C77 81.65051161 77 81.65051161 77 89 C73.37 89 69.74 89 66 89 C65.7326001 87.51153564 65.4652002 86.02307129 65.18969727 84.48950195 C64.19686331 78.96369715 63.20338681 73.43800803 62.2097168 67.91235352 C61.77985404 65.5214345 61.35016522 63.1304842 60.9206543 60.73950195 C60.30303002 57.30151246 59.68477901 53.86363618 59.06640625 50.42578125 C58.87470352 49.35789871 58.68300079 48.29001617 58.48548889 47.18977356 C58.30537766 46.18911362 58.12526642 45.18845367 57.93969727 44.1574707 C57.70320213 42.84175835 57.70320213 42.84175835 57.46192932 41.49946594 C56.99895909 38.99436772 56.50592699 36.49674504 56 34 C53.4028266 39.86700692 50.8069506 45.73458668 48.21191406 51.60253906 C47.33166855 53.59257548 46.451142 55.58248762 45.5703125 57.57226562 C40.64982268 68.68809944 35.74687532 79.80870721 31 91 C28.02498639 87.46589292 26.28306957 83.49276325 24.453125 79.296875 C23.95168976 78.16369843 23.95168976 78.16369843 23.44012451 77.00762939 C22.37193122 74.59051205 21.31088775 72.17033134 20.25 69.75 C19.55254806 68.16906573 18.85463544 66.58833461 18.15625 65.0078125 C13.74570795 55.01626821 9.37275097 45.00812949 5 35 C3.17646537 39.96331975 2.19366677 44.86500354 1.30859375 50.0546875 C1.158423 50.91506622 1.00825226 51.77544495 0.85353088 52.66189575 C0.53795466 54.47522894 0.22459583 56.28894927 -0.08666992 58.10302734 C-0.55991589 60.85994612 -1.04009466 63.61558654 -1.52148438 66.37109375 C-1.82853418 68.14055404 -2.13518779 69.91008314 -2.44140625 71.6796875 C-2.58308731 72.49452606 -2.72476837 73.30936462 -2.8707428 74.14889526 C-3.51843013 77.93406446 -4.09857712 81.70424804 -4.53491211 85.52001953 C-5 89 -5 89 -6 90 C-9.66655195 90.14300125 -13.33144219 90.04216733 -17 90 C-15.33308748 78.10982821 -13.02574777 66.34774343 -10.75 54.5625 C-10.34766166 52.46998531 -9.94539984 50.3774559 -9.54321289 48.28491211 C-6.4414964 32.17392729 -3.2665046 16.07839635 0 0 Z " fill="#F8F8F8" transform="translate(376,589)"/>
<path d="M0 0 C8.08430999 6.55441069 14.87656203 16.83779107 16.31738281 27.3059082 C16.47355907 29.77525634 16.51860634 32.21333334 16.5 34.6875 C16.49500488 35.5630957 16.49000977 36.43869141 16.48486328 37.34082031 C16.12504437 50.83527017 10.43127468 60.90721881 0.875 70.1875 C-10.0026318 79.56922658 -22.94547282 80.86421294 -36.67089844 80.2265625 C-42.0099476 79.70720845 -46.40280549 77.63395491 -51 75 C-51.80695313 74.56558594 -52.61390625 74.13117188 -53.4453125 73.68359375 C-63.66827725 67.60179608 -70.64058356 57.08980309 -73.609375 45.65234375 C-75.72350653 31.29739064 -73.14597791 19.68553947 -65.04296875 7.57421875 C-48.66220199 -13.06617379 -20.72341291 -15.19472854 0 0 Z M-55.53515625 12 C-62.56007152 21.59135099 -64.05766925 31.42904074 -63 43 C-61.00121861 51.76037327 -55.9574207 59.17601941 -48.625 64.3125 C-47.1018758 65.23950925 -45.56068579 66.13772781 -44 67 C-43.07767578 67.51240234 -43.07767578 67.51240234 -42.13671875 68.03515625 C-34.92570185 71.35500343 -26.29471415 71.11363536 -18.74609375 69.15625 C-8.31504992 65.21296906 -0.70347524 58.76478476 3.96875 48.55078125 C6.49228441 39.86179345 6.65979781 28.39504364 3.09765625 19.9453125 C-1.69480065 11.45191913 -7.93389981 5.09450771 -17.26953125 1.87109375 C-31.49995265 -1.4518214 -45.31650841 0.80695786 -55.53515625 12 Z " fill="#F8F8F8" transform="translate(544,600)"/>
<path d="M0 0 C7.86718961 6.74330538 7.86718961 6.74330538 10.796875 9.91796875 C11.44019775 10.60963135 12.08352051 11.30129395 12.74633789 12.01391602 C13.40754639 12.73119873 14.06875488 13.44848145 14.75 14.1875 C19.44255504 19.23171176 24.16030835 24.22133148 29.0625 29.0625 C31.93186095 31.89790401 34.70249565 34.73734636 37.3125 37.8125 C41.23105525 42.41419322 45.56466109 46.59026928 49.85742188 50.83789062 C54.10982312 55.06276824 58.14698026 59.40550567 62 64 C62.33 64.33 62.66 64.66 63 65 C63.33 44.54 63.66 24.08 64 3 C67.63 3 71.26 3 75 3 C75 32.37 75 61.74 75 92 C70.31129446 87.98110954 65.83195378 83.99352688 61.5 79.625 C60.92886475 79.05193115 60.35772949 78.4788623 59.76928711 77.88842773 C56.36320791 74.44734957 53.13375217 70.91728639 50.00390625 67.22265625 C47.12281112 64.02705561 44.05758215 61.02589325 41 58 C33.63724596 50.71347481 33.63724596 50.71347481 30.5 47 C25.55552821 41.15074085 19.9587844 35.87707222 14.51464844 30.4987793 C13.00451808 29.00447074 11.50224028 27.50224028 10 26 C10 46.79 10 67.58 10 89 C6.7 89 3.4 89 0 89 C0 59.63 0 30.26 0 0 Z " fill="#FAFAFA" transform="translate(769,589)"/>
<path d="M0 0 C3.63 0 7.26 0 11 0 C11.01458252 1.74015381 11.02916504 3.48030762 11.04418945 5.27319336 C11.09604619 11.05283272 11.16138633 16.83223724 11.23571491 22.61162472 C11.28025108 26.1122344 11.31954269 29.61273219 11.34643555 33.11352539 C11.37766317 37.14758877 11.43244401 41.18104536 11.48828125 45.21484375 C11.49467117 46.45894516 11.5010611 47.70304657 11.50764465 48.98484802 C11.66486121 58.36140991 12.82180105 66.58616126 19 74 C24.51725845 78.24404496 31.37175189 77.68875439 38 77 C42.43121754 76.00191426 45.00605201 74.47722094 47.55859375 70.68359375 C50.80837645 64.50624477 52.09902795 59.07802427 52.20532227 52.1081543 C52.22526749 50.94732834 52.24521271 49.78650238 52.26576233 48.59049988 C52.28247482 47.34762711 52.29918732 46.10475433 52.31640625 44.82421875 C52.33718735 43.54392288 52.35796844 42.26362701 52.37937927 40.9445343 C52.43437572 37.55310271 52.48388312 34.16161265 52.53222656 30.77008057 C52.58260616 27.30435021 52.63820601 23.83870397 52.69335938 20.37304688 C52.80037429 13.5820984 52.90217134 6.79108669 53 0 C56.3 0 59.6 0 63 0 C63.11655565 8.13722333 63.20504616 16.27408995 63.25906086 24.41194534 C63.28500339 28.19192529 63.32011376 31.97132845 63.37719727 35.75097656 C63.43207422 39.40798241 63.46153546 43.06443839 63.47438622 46.72182465 C63.48352761 48.10753775 63.50137487 49.49322545 63.52865028 50.87870026 C63.73532822 61.82618091 62.26876014 71.62204008 54.6875 80 C46.05416546 87.74544237 36.23687672 88.81139614 25.07177734 88.23535156 C20.41795172 87.70668224 16.78320923 85.6261714 13 83 C12.071875 82.401875 11.14375 81.80375 10.1875 81.1875 C2.30611897 73.30611897 -0.08064181 63.14455452 -0.34057617 52.22167969 C-0.34010903 49.78835976 -0.32363263 47.35500176 -0.29296875 44.921875 C-0.28872391 43.62928772 -0.28447906 42.33670044 -0.28010559 41.00494385 C-0.26879347 37.61173242 -0.239449 34.21892236 -0.20599365 30.8258667 C-0.17499376 27.34620591 -0.16153717 23.8664786 -0.14648438 20.38671875 C-0.11456186 13.59096695 -0.06191044 6.79554422 0 0 Z " fill="#FBFBFB" transform="translate(582,592)"/>
<path d="M0 0 C15.51 0 31.02 0 47 0 C47 3.3 47 6.6 47 10 C35.12 10 23.24 10 11 10 C11 17.92 11 25.84 11 34 C22.55 34 34.1 34 46 34 C46 37.3 46 40.6 46 44 C34.45 44 22.9 44 11 44 C11 54.56 11 65.12 11 76 C22.88 76 34.76 76 47 76 C47 79.63 47 83.26 47 87 C31.49 87 15.98 87 0 87 C0 58.29 0 29.58 0 0 Z " fill="#F4F4F4" transform="translate(247,592)"/>
<path d="M0 0 C0.99 0 1.98 0 3 0 C4.875 1.94921875 4.875 1.94921875 7 4.6875 C7.7940625 5.69167969 8.588125 6.69585938 9.40625 7.73046875 C10.03853516 8.53363525 10.03853516 8.53363525 10.68359375 9.35302734 C12.89518575 12.11997831 15.20018759 14.80634824 17.5 17.5 C30.66196036 32.99294054 30.66196036 32.99294054 34 38 C12.55 38 -8.9 38 -31 38 C-24.32116788 29.09489051 -24.32116788 29.09489051 -20.6875 25.1875 C-13.83599022 17.6796271 -7.47363204 9.81025095 -1.5078125 1.58203125 C-1.01023437 1.05996094 -0.51265625 0.53789063 0 0 Z " fill="#ECB944" transform="translate(639,526)"/>
<path d="M0 0 C3.63 0 7.26 0 11 0 C11 25.41 11 50.82 11 77 C19.91 77 28.82 77 38 77 C38 80.3 38 83.6 38 87 C25.46 87 12.92 87 0 87 C0 58.29 0 29.58 0 0 Z " fill="#F5F5F5" transform="translate(190,592)"/>
<path d="M0 0 C3.63 0 7.26 0 11 0 C11 25.41 11 50.82 11 77 C19.58 77 28.16 77 37 77 C37 80.3 37 83.6 37 87 C24.79 87 12.58 87 0 87 C0 58.29 0 29.58 0 0 Z " fill="#F8F8F8" transform="translate(673,592)"/>
<path d="M0 0 C3.63 0 7.26 0 11 0 C11 28.71 11 57.42 11 87 C7.37 87 3.74 87 0 87 C0 58.29 0 29.58 0 0 Z " fill="#F5F5F5" transform="translate(730,592)"/>
<path d="M0 0 C11 0 11 0 15 2 C17.50031654 5.75047482 17.53603554 7.55856266 17 12 C14.625 14.9375 14.625 14.9375 12 17 C11.34 17 10.68 17 10 17 C10.6496875 17.92683594 11.299375 18.85367188 11.96875 19.80859375 C12.81262221 21.01814391 13.65636558 22.22778397 14.5 23.4375 C14.92925781 24.04916016 15.35851562 24.66082031 15.80078125 25.29101562 C19 29.88671875 19 29.88671875 19 31 C16.76171875 31.37109375 16.76171875 31.37109375 14 31 C11.83203125 28.41015625 11.83203125 28.41015625 9.8125 25.0625 C7.55182018 20.85294584 7.55182018 20.85294584 4 18 C4 22.29 4 26.58 4 31 C2.68 31 1.36 31 0 31 C0 20.77 0 10.54 0 0 Z " fill="#E8B643" transform="translate(190,533)"/>
<path d="M0 0 C11 0 11 0 14.125 1.5625 C16.61328559 4.79727127 17 6.93536918 17 11 C15.8125 13.875 15.8125 13.875 14 16 C11.88671875 16.6328125 11.88671875 16.6328125 10 17 C10.39832031 17.59167969 10.79664063 18.18335938 11.20703125 18.79296875 C13.90025298 22.80986636 16.57039197 26.81567505 19 31 C16.76953125 31.3359375 16.76953125 31.3359375 14 31 C11.76171875 28.6640625 11.76171875 28.6640625 9.6875 25.625 C8.99011719 24.62726562 8.29273438 23.62953125 7.57421875 22.6015625 C6 20 6 20 6 18 C5.34 18 4.68 18 4 18 C4 22.29 4 26.58 4 31 C2.68 31 1.36 31 0 31 C0 20.77 0 10.54 0 0 Z " fill="#E5B342" transform="translate(363,533)"/>
<path d="M0 0 C2.54485378 3.13756847 4.22784856 6.34462727 5.91796875 10.0078125 C6.44970703 11.15894531 6.98144531 12.31007813 7.52929688 13.49609375 C8.07650391 14.69363281 8.62371094 15.89117188 9.1875 17.125 C9.75160409 18.34260968 10.31605379 19.56005931 10.88085938 20.77734375 C15 29.73986951 15 29.73986951 15 32 C13.35 31.67 11.7 31.34 10 31 C9.34 28.69 8.68 26.38 8 24 C3.05 24 -1.9 24 -7 24 C-7.66 25.98 -8.32 27.96 -9 30 C-9.33 30.66 -9.66 31.32 -10 32 C-11.32 32 -12.64 32 -14 32 C-13.36151633 27.93060554 -12.04564189 24.58835941 -10.3125 20.859375 C-9.77882813 19.70695313 -9.24515625 18.55453125 -8.6953125 17.3671875 C-8.13585937 16.17351563 -7.57640625 14.97984375 -7 13.75 C-6.43444988 12.52885227 -5.86934119 11.3075 -5.3046875 10.0859375 C-1.14620536 1.14620536 -1.14620536 1.14620536 0 0 Z " fill="#E7B543" transform="translate(402,532)"/>
<path d="M0 0 C0.66 0 1.32 0 2 0 C6.62 10.23 11.24 20.46 16 31 C14.68 31.33 13.36 31.66 12 32 C10.68 29.69 9.36 27.38 8 25 C3.38 25 -1.24 25 -6 25 C-6.99 27.31 -7.98 29.62 -9 32 C-10.65 32 -12.3 32 -14 32 C-4.28699135 9.19872014 -4.28699135 9.19872014 0 0 Z " fill="#E7B543" transform="translate(305,532)"/>
<path d="M0 0 C7.87462729 6.74968053 7.87462729 6.74968053 10.640625 9.54296875 C11.23617188 10.14173828 11.83171875 10.74050781 12.4453125 11.35742188 C13.04085938 11.96134766 13.63640625 12.56527344 14.25 13.1875 C14.86101562 13.80302734 15.47203125 14.41855469 16.1015625 15.05273438 C17.23067615 16.19047663 18.35874861 17.32925399 19.48535156 18.46948242 C20.98500506 19.98484796 22.49247001 21.49247001 24 23 C24 15.74 24 8.48 24 1 C24.99 1 25.98 1 27 1 C27 11.23 27 21.46 27 32 C22.76866278 28.37313953 18.77831674 24.91586759 14.875 21 C13.66457031 19.7934375 13.66457031 19.7934375 12.4296875 18.5625 C9.82965153 15.82033988 7.4191542 12.90298504 5 10 C4.67 17.26 4.34 24.52 4 32 C2.68 32 1.36 32 0 32 C0 21.44 0 10.88 0 0 Z " fill="#EBB843" transform="translate(425,532)"/>
<path d="M0 0 C4.88049925 3.9419417 9.0580583 8.11950075 13 13 C11.26461877 14.87002288 9.5140665 16.71988092 7.75 18.5625 C7.25886719 19.09552734 6.76773438 19.62855469 6.26171875 20.17773438 C2.60801357 23.95322973 2.60801357 23.95322973 -0.03125 24.15625 C-2.89158168 22.47637267 -4.95401187 20.32411924 -7.25 17.9375 C-8.14203125 17.01839844 -9.0340625 16.09929687 -9.953125 15.15234375 C-10.62859375 14.44207031 -11.3040625 13.73179687 -12 13 C-8.19524578 8.43969176 -4.25030379 4.14910608 0 0 Z " fill="#EAB743" transform="translate(640,477)"/>
<path d="M0 0 C1.32 0 2.64 0 4 0 C4.02187378 1.01368652 4.02187378 1.01368652 4.04418945 2.04785156 C4.11875411 5.11580522 4.21538655 8.18268076 4.3125 11.25 C4.33505859 12.31347656 4.35761719 13.37695312 4.38085938 14.47265625 C4.41630859 15.49746094 4.45175781 16.52226563 4.48828125 17.578125 C4.51446533 18.52075195 4.54064941 19.46337891 4.56762695 20.43457031 C5.0719997 23.42720091 5.88482273 24.84271258 8 27 C11.24686974 27.47350184 13.10822802 27.64576592 15.8125 25.6875 C17.96934857 22.62250466 18.16238977 19.7436697 18.31640625 16.11328125 C18.35830078 15.17548828 18.40019531 14.23769531 18.44335938 13.27148438 C18.48267578 12.29501953 18.52199219 11.31855469 18.5625 10.3125 C18.60568359 9.32443359 18.64886719 8.33636719 18.69335938 7.31835938 C18.79941654 4.87904454 18.90147714 2.43962887 19 0 C20.32 0 21.64 0 23 0 C23.08761663 3.54150893 23.14059739 7.08273633 23.1875 10.625 C23.21263672 11.62402344 23.23777344 12.62304688 23.26367188 13.65234375 C23.31864038 19.18583962 23.22924366 23.26984028 20 28 C16.97233896 30.55669154 14.91504018 31.8474933 11 32.5 C7.14620442 31.85770074 5.00975803 30.4625293 2 28 C-0.09891952 24.76368704 -0.23586935 22.17171874 -0.1953125 18.359375 C-0.18886719 17.28945313 -0.18242187 16.21953125 -0.17578125 15.1171875 C-0.15902344 14.00601563 -0.14226562 12.89484375 -0.125 11.75 C-0.11597656 10.62335937 -0.10695313 9.49671875 -0.09765625 8.3359375 C-0.07410658 5.55707635 -0.0412168 2.7786461 0 0 Z " fill="#E0B041" transform="translate(329,533)"/>
<path d="M0 0 C5.61 0 11.22 0 17 0 C17 0.99 17 1.98 17 3 C12.71 3 8.42 3 4 3 C4 5.97 4 8.94 4 12 C8.29 12 12.58 12 17 12 C17 13.32 17 14.64 17 16 C12.71 16 8.42 16 4 16 C4 19.63 4 23.26 4 27 C8.29 27 12.58 27 17 27 C17 28.32 17 29.64 17 31 C11.39 31 5.78 31 0 31 C0 20.77 0 10.54 0 0 Z " fill="#E8B543" transform="translate(218,533)"/>
<path d="M0 0 C2.875 1.5 2.875 1.5 5 3 C4.67 3.99 4.34 4.98 4 6 C0.7 5.67 -2.6 5.34 -6 5 C-6.33 6.65 -6.66 8.3 -7 10 C-6.22914063 10.39832031 -5.45828125 10.79664063 -4.6640625 11.20703125 C-3.66117188 11.73683594 -2.65828125 12.26664063 -1.625 12.8125 C-0.12839844 13.59560547 -0.12839844 13.59560547 1.3984375 14.39453125 C4 16 4 16 6 19 C6.77810526 25.89178947 6.77810526 25.89178947 3.9375 29.9375 C0.38459775 32.43209094 -1.65904305 33.07615714 -6 33 C-9.375 31.4375 -9.375 31.4375 -12 29 C-12.875 25.75 -12.875 25.75 -13 23 C-11.68 23 -10.36 23 -9 23 C-8.525625 23.825 -8.05125 24.65 -7.5625 25.5 C-7.046875 26.325 -6.53125 27.15 -6 28 C-3.45709375 28.58350505 -3.45709375 28.58350505 -1 28 C1.34973818 26.10244856 1.34973818 26.10244856 1.125 22.875 C1.08375 21.92625 1.0425 20.9775 1 20 C0.22914063 19.60167969 -0.54171875 19.20335937 -1.3359375 18.79296875 C-2.33882812 18.26316406 -3.34171875 17.73335937 -4.375 17.1875 C-5.37273437 16.66542969 -6.37046875 16.14335938 -7.3984375 15.60546875 C-10 14 -10 14 -12 11 C-12.5 8.125 -12.5 8.125 -12 5 C-8.25309759 0.89624975 -5.58505838 -0.95064824 0 0 Z " fill="#E3B242" transform="translate(257,532)"/>
<path d="M0 0 C6.27 0 12.54 0 19 0 C19 0.99 19 1.98 19 3 C16.69 3 14.38 3 12 3 C12 12.24 12 21.48 12 31 C10.68 31 9.36 31 8 31 C8 21.76 8 12.52 8 3 C5.36 3 2.72 3 0 3 C0 2.01 0 1.02 0 0 Z " fill="#E6B443" transform="translate(270,533)"/>
<path d="M0 0 C5.94 0 11.88 0 18 0 C18 0.99 18 1.98 18 3 C15.69 3 13.38 3 11 3 C11 12.24 11 21.48 11 31 C9.68 31 8.36 31 7 31 C7 21.76 7 12.52 7 3 C4.69 3 2.38 3 0 3 C0 2.01 0 1.02 0 0 Z " fill="#ECB944" transform="translate(461,533)"/>
<path d="M0 0 C7.75 0.75 7.75 0.75 10 3 C9.75 6.5625 9.75 6.5625 9 10 C6.04335481 11.4783226 3.25770263 11.06032783 0 11 C0 7.37 0 3.74 0 0 Z " fill="#362D23" transform="translate(366,536)"/>
<path d="M0 0 C6.75 0.75 6.75 0.75 9 3 C9.25 6 9.25 6 9 9 C7 11 7 11 3.375 11.125 C2.26125 11.08375 1.1475 11.0425 0 11 C0 7.37 0 3.74 0 0 Z " fill="#282320" transform="translate(194,536)"/>
<path d="M0 0 C2.74792483 3.40219265 6 7.48464588 6 12 C2.37 12 -1.26 12 -5 12 C-2.25 3.375 -2.25 3.375 0 0 Z " fill="#3B3124" transform="translate(402,541)"/>
<path d="M0 0 C0.66 0 1.32 0 2 0 C2.67354499 1.43429001 3.33859701 2.87257057 4 4.3125 C4.556875 5.51326172 4.556875 5.51326172 5.125 6.73828125 C6 9 6 9 6 12 C2.7 12 -0.6 12 -4 12 C-3.33501617 7.61110675 -1.81242323 4.0188515 0 0 Z " fill="#393023" transform="translate(305,541)"/>
</svg>
